<?xml version="1.0" encoding="UTF-8" standalone="no"?>
<!-- Created with Inkscape (http://www.inkscape.org/) -->

<svg
   xmlns:dc="http://purl.org/dc/elements/1.1/"
   xmlns:cc="http://creativecommons.org/ns#"
   xmlns:rdf="http://www.w3.org/1999/02/22-rdf-syntax-ns#"
   xmlns:svg="http://www.w3.org/2000/svg"
   xmlns="http://www.w3.org/2000/svg"
   xmlns:sodipodi="http://sodipodi.sourceforge.net/DTD/sodipodi-0.dtd"
   xmlns:inkscape="http://www.inkscape.org/namespaces/inkscape"
   width="105mm"
   height="148mm"
   viewBox="0 0 372.04724 524.40944"
   id="svg2"
   version="1.1"
   inkscape:version="0.91 r13725"
   inkscape:export-filename="/home/developpement/logos/dazd"
   inkscape:export-xdpi="90"
   inkscape:export-ydpi="90"
   sodipodi:docname="horse logo .svg">
  <defs
     id="defs4" />
  <sodipodi:namedview
     id="base"
     pagecolor="#ffffff"
     bordercolor="#666666"
     borderopacity="1.0"
     inkscape:pageopacity="0.0"
     inkscape:pageshadow="2"
     inkscape:zoom="1.1301751"
     inkscape:cx="-156.37491"
     inkscape:cy="177.70236"
     inkscape:document-units="px"
     inkscape:current-layer="layer1"
     showgrid="false"
     inkscape:window-width="1920"
     inkscape:window-height="1054"
     inkscape:window-x="1920"
     inkscape:window-y="0"
     inkscape:window-maximized="1"
     inkscape:snap-page="true"
     inkscape:snap-text-baseline="true"
     units="mm"
     borderlayer="true"
     inkscape:showpageshadow="true"
     showborder="true"
     showguides="false">
    <inkscape:grid
       type="xygrid"
       id="grid4871" />
  </sodipodi:namedview>
  <metadata
     id="metadata7">
    <rdf:RDF>
      <cc:Work
         rdf:about="">
        <dc:format>image/svg+xml</dc:format>
        <dc:type
           rdf:resource="http://purl.org/dc/dcmitype/StillImage" />
        <dc:title></dc:title>
      </cc:Work>
    </rdf:RDF>
  </metadata>
  <g
     inkscape:label="Calque 1"
     inkscape:groupmode="layer"
     id="layer1"
     transform="translate(0,-527.95278)">
    <path
       style="fill:#5e7074;stroke:none"
       id="path3902"
       d="m 207.19693,838.76955 c -15.98605,-11.16909 -35.67259,-30.52883 -47.95817,-47.208 -15.542,-20.99786 -29.45579,-53.16482 -33.4523,-76.99219 l -1.03613,-6.25469 12.4336,-9.82879 c 6.80887,-5.36116 17.31822,-12.36045 23.387,-15.4878 l 11.10143,-5.51006 -3.25642,-5.06332 c -1.92424,-2.68058 -3.40443,-6.70145 -3.40443,-8.78635 0,-3.87195 7.99302,-22.48709 9.62123,-22.48709 0.44406,0 2.07227,2.82951 3.70048,6.10577 l 2.66434,6.25469 2.22029,-4.31871 c 3.84849,-7.7439 6.95689,-19.06191 7.40095,-27.40149 0.59208,-9.9777 3.40444,-10.87123 6.51284,-2.23382 2.07226,5.80793 1.92424,14.74319 -0.44406,34.69862 -0.59208,5.21224 -0.44406,7.7439 0.74009,7.7439 3.1084,0 17.76229,-16.38132 19.09446,-21.1468 1.48019,-5.95684 4.88463,-6.40361 6.36482,-0.7446 1.48019,5.51008 -0.7401,12.80721 -6.80888,21.8914 l -5.18066,7.59498 5.32868,-3.12734 c 6.36482,-4.02088 18.94644,-4.61656 22.4989,-0.89353 2.22028,2.08489 1.92424,2.53166 -2.36831,4.02087 -2.96038,1.04245 -6.66085,4.31871 -9.47322,8.33958 l -4.58859,6.85036 6.51284,5.36116 c 3.55246,2.97842 12.28558,10.72232 19.24248,17.42377 10.36133,9.82879 14.8019,12.8072 22.94295,16.08347 13.17369,4.91439 19.68653,10.42447 25.31125,21.29572 5.92077,11.16908 7.40096,20.40219 4.29256,27.84824 l -2.22029,5.51009 -6.2168,-4.61656 c -3.40444,-2.38274 -7.99303,-4.46763 -10.06529,-4.46763 -3.55246,0 -3.40444,0.29784 3.25642,7.14821 8.43708,8.63743 7.54897,10.42448 -5.47671,11.76477 -6.95689,0.74461 -9.47322,0.29784 -16.43011,-3.12734 -4.44057,-2.23382 -9.91728,-6.40361 -11.98955,-9.23311 -6.06878,-7.89282 -10.21331,-6.9993 -30.19588,6.25468 -5.32868,3.57411 -11.54548,6.85038 -13.76577,7.44605 -2.96038,0.7446 -3.99651,1.63813 -3.55246,3.42518 0.44406,1.34029 4.73661,13.70074 9.76926,27.69933 4.88463,13.84966 8.43708,25.76335 7.84501,26.21012 -0.59208,0.59568 -6.9569,-2.97843 -14.35785,-8.04174 z"
       inkscape:connector-curvature="0" />
    <path
       style="fill:#23b3ac;stroke:none;fill-opacity:1"
       id="path3900"
       d="m 233.75112,892.27499 c -20.39805,-8.42503 -47.17416,-25.06823 -61.11007,-37.81382 -32.97533,-30.6581 -52.38647,-66.39123 -57.95992,-106.25407 -2.75431,-20.71027 -1.37116,-48.21692 2.48404,-47.9348 0.86957,0.15465 2.60347,7.50205 4.16909,17.68894 1.64625,9.75289 4.58635,22.69498 6.73926,28.99603 13.42236,40.40689 43.32967,77.42389 79.97609,98.96093 12.33353,7.34944 35.37536,17.50004 45.19483,20.00858 2.78576,0.71961 5.47161,1.7353 5.98354,2.36436 0.51193,0.62906 -3.56416,6.85352 -8.9481,13.83173 l -9.79484,12.82928 -6.73392,-2.67716 z"
       inkscape:connector-curvature="0" />
    <path
       style="fill:#5e7074;stroke:none"
       id="path3900-5"
       d="m 198.94329,921.55335 c -19.89803,-11.72995 -45.25766,-32.9585 -57.90048,-48.27127 -29.84762,-36.75465 -45.010087,-76.85907 -45.333861,-119.2868 -0.02242,-22.02251 5.148991,-50.54735 9.088041,-49.69858 0.87609,0.28649 1.66479,8.20821 1.89335,19.07087 0.37083,10.42105 1.64239,24.35839 3.00583,31.2477 8.34753,44.1241 34.16423,87.07798 69.041,114.83574 11.72417,9.44752 34.11493,23.35942 43.9043,27.39047 2.77616,1.15189 5.40891,2.5986 5.85145,3.32909 0.44253,0.73048 -4.61015,6.64441 -11.11474,13.15745 l -11.85186,11.98892 -6.58303,-3.76359 z"
       inkscape:connector-curvature="0" />
    <path
       style="fill:#23b3ac;stroke:none;fill-opacity:1"
       id="path3900-5-6"
       d="M 160.01152,946.6074 C 140.99855,931.59838 117.63564,905.99828 106.64263,888.36112 80.773439,846.10046 70.59745,802.54202 76.131862,758.76623 c 3.023722,-22.70088 12.333521,-51.34133 16.301216,-49.88859 0.868937,0.42382 0.590856,8.70408 -0.675045,19.93326 -1.057251,10.79489 -1.666864,25.34604 -1.206044,32.64658 2.552179,46.70141 23.383241,94.7599 55.712851,128.48576 10.8518,11.45732 32.14806,29.0809 41.74272,34.67185 2.71973,1.59453 5.24995,3.47185 5.60783,4.28966 0.35787,0.81782 -5.7004,6.17168 -13.34734,11.93 l -13.9501,10.61749 -6.30643,-4.84484 z"
       inkscape:connector-curvature="0" />
  </g>
  <g
     inkscape:groupmode="layer"
     id="layer2"
     inkscape:label="Calque 2"
     transform="translate(0,-527.95278)" />
</svg>
